<svg xmlns="http://www.w3.org/2000/svg" x="0px" y="0px" width="100" height="100" viewBox="0 0 64 64">
<path fill="#ffffff" d="M 32.054688 7.1054688 C 28.907655 7.1490489 25.570396 7.8758045 22.464844 9.2265625 C 15.366437 12.314009 9.3672822 18.959575 10.001953 28.689453 C 10.306894 33.366749 11.229547 37.043351 11.441406 40.28125 C 11.653265 43.519149 11.239857 46.287638 8.8671875 49.609375 A 1.0001 1.0001 0 0 0 9.0117188 50.933594 C 13.081708 54.596246 19.408203 53.871094 19.408203 53.871094 A 1.000588 1.000588 0 1 0 19.21875 51.878906 C 19.21875 51.878906 14.27313 52.141378 11.039062 49.847656 C 13.12761 46.517685 13.647388 43.360114 13.4375 40.152344 C 13.208109 36.646492 12.290106 33.040251 11.998047 28.560547 C 11.419718 19.694425 16.732328 13.90135 23.263672 11.060547 C 29.795015 8.2197436 37.438081 8.6339779 41.001953 11.925781 A 1.0001 1.0001 0 0 0 41.681641 12.191406 C 45.323641 12.191406 48.374793 14.113171 50.425781 17.291016 C 52.47677 20.46886 53.461224 24.901602 52.759766 29.730469 C 52.107226 34.221741 51.507312 38.310251 51.623047 41.890625 C 51.721427 44.934169 52.4284 47.631467 54.080078 49.789062 C 51.876408 50.718725 48.46355 51.468377 44.039062 50.429688 C 46.133308 45.496535 46.584936 39.850603 45.882812 34.716797 C 45.253706 30.11686 43.755391 26.024501 41.697266 23.158203 C 42.283982 20.917764 42.30957 19.264636 41.841797 18.085938 C 41.350249 16.84733 40.126797 16.149015 39.052734 16.394531 C 37.978671 16.640047 37.18161 17.644844 37.09375 18.875 C 37.00589 20.105156 37.585828 21.509655 38.974609 22.898438 C 39.129734 23.053562 39.269591 23.30294 39.421875 23.480469 C 37.891521 27.580323 33.123479 30.112171 28.341797 31.5 C 23.327541 32.955331 18.630859 33.191406 18.630859 33.191406 A 1.0001 1.0001 0 0 0 17.681641 34.191406 C 17.681641 41.405692 19.928657 49.534632 23.896484 54.560547 C 25.880398 57.073504 28.364391 58.844208 31.251953 59.09375 C 34.139515 59.343292 37.256089 58.031019 40.388672 54.898438 A 1.0001 1.0001 0 1 0 38.974609 53.484375 C 36.107192 56.351792 33.598766 57.289521 31.423828 57.101562 C 29.24889 56.913606 27.232883 55.559308 25.466797 53.322266 C 22.086209 49.040187 19.935292 41.663611 19.751953 35.087891 C 20.994142 34.998731 24.489559 34.700116 28.900391 33.419922 C 33.538762 32.073687 38.478513 29.596226 40.716797 25.255859 C 42.184808 27.733057 43.380575 31.187473 43.900391 34.988281 C 44.615402 40.216333 44.114002 46.035156 41.785156 50.748047 A 1.0001 1.0001 0 0 0 42.394531 52.148438 C 48.749503 54.042678 53.627585 52.369641 56.138672 51.080078 A 1.0001 1.0001 0 0 0 56.375 49.470703 C 54.476041 47.642783 53.727859 45.127094 53.621094 41.824219 C 53.514329 38.521343 54.087774 34.510259 54.740234 30.019531 C 55.504776 24.756398 54.45548 19.848187 52.105469 16.207031 C 49.811434 12.652607 46.204425 10.342215 41.980469 10.232422 C 39.756101 8.3454002 36.748593 7.2952566 33.390625 7.1289062 C 32.950048 7.1070805 32.504264 7.099243 32.054688 7.1054688 z M 39.59375 18.324219 C 39.692382 18.31611 39.806278 18.378416 39.982422 18.822266 C 40.132509 19.200458 40.149904 20.00448 40.042969 21.013672 C 39.335143 20.148639 39.058668 19.426734 39.087891 19.017578 C 39.122691 18.53039 39.373985 18.372109 39.498047 18.34375 C 39.529062 18.33666 39.560873 18.326922 39.59375 18.324219 z"></path>
</svg>